<?xml version="1.0" encoding="UTF-8" standalone="no"?><svg xmlns="http://www.w3.org/2000/svg" xmlns:xlink="http://www.w3.org/1999/xlink" contentScriptType="application/ecmascript" contentStyleType="text/css" height="304px" preserveAspectRatio="none" style="width:560px;height:304px;" version="1.1" viewBox="0 0 560 304" width="560px" zoomAndPan="magnify"><defs><filter height="300%" id="f17bdlbwwesh00" width="300%" x="-1" y="-1"><feGaussianBlur result="blurOut" stdDeviation="2.0"/><feColorMatrix in="blurOut" result="blurOut2" type="matrix" values="0 0 0 0 0 0 0 0 0 0 0 0 0 0 0 0 0 0 .4 0"/><feOffset dx="4.0" dy="4.0" in="blurOut2" result="blurOut3"/><feBlend in="SourceGraphic" in2="blurOut3" mode="normal"/></filter></defs><g><!--MD5=[ba20e1e29fc049e46e05d10119de3e0c]
entity ##13--><!--MD5=[045fda80d966d866a4266074cfd1e9c9]
class Notify--><rect fill="#FEFECE" filter="url(#f17bdlbwwesh00)" height="125.7305" id="Notify" style="stroke: #A80036; stroke-width: 1.5;" width="141" x="408.5" y="8"/><ellipse cx="458.25" cy="24" fill="#ADD1B2" rx="11" ry="11" style="stroke: #A80036; stroke-width: 1.0;"/><path d="M460.7231,30.1431 Q460.1421,30.4419 459.5029,30.5913 Q458.8638,30.7407 458.1582,30.7407 Q455.6514,30.7407 454.3315,29.0889 Q453.0117,27.437 453.0117,24.3159 Q453.0117,21.1865 454.3315,19.5347 Q455.6514,17.8828 458.1582,17.8828 Q458.8638,17.8828 459.5112,18.0322 Q460.1587,18.1816 460.7231,18.4805 L460.7231,21.2031 Q460.0923,20.6221 459.4988,20.3523 Q458.9053,20.0825 458.2744,20.0825 Q456.9297,20.0825 456.2449,21.1492 Q455.5601,22.2158 455.5601,24.3159 Q455.5601,26.4077 456.2449,27.4744 Q456.9297,28.541 458.2744,28.541 Q458.9053,28.541 459.4988,28.2712 Q460.0923,28.0015 460.7231,27.4204 Z "/><text fill="#000000" font-family="sans-serif" font-size="12" lengthAdjust="spacingAndGlyphs" textLength="33" x="478.75" y="28.5352">Notify</text><line style="stroke: #A80036; stroke-width: 1.5;" x1="409.5" x2="548.5" y1="40" y2="40"/><text fill="#000000" font-family="sans-serif" font-size="11" lengthAdjust="spacingAndGlyphs" textLength="129" x="414.5" y="54.6348">platform: NotifyPlatform</text><text fill="#000000" font-family="sans-serif" font-size="11" lengthAdjust="spacingAndGlyphs" textLength="95" x="414.5" y="67.5898">notifyType: String</text><text fill="#000000" font-family="sans-serif" font-size="11" lengthAdjust="spacingAndGlyphs" textLength="58" x="414.5" y="80.5449">title: String</text><text fill="#000000" font-family="sans-serif" font-size="11" lengthAdjust="spacingAndGlyphs" textLength="59" x="414.5" y="93.5">text: String</text><text fill="#000000" font-family="sans-serif" font-size="11" lengthAdjust="spacingAndGlyphs" textLength="70" x="414.5" y="106.4551">picUrl: String</text><text fill="#000000" font-family="sans-serif" font-size="11" lengthAdjust="spacingAndGlyphs" textLength="57" x="414.5" y="119.4102">link: String</text><line style="stroke: #A80036; stroke-width: 1.5;" x1="409.5" x2="548.5" y1="125.7305" y2="125.7305"/><!--MD5=[d751d60023ab84c461ea23da7e8d2ad2]
class NotifyPlatform--><rect fill="#FEFECE" filter="url(#f17bdlbwwesh00)" height="73.9102" id="NotifyPlatform" style="stroke: #A80036; stroke-width: 1.5;" width="126" x="418" y="207"/><ellipse cx="438.85" cy="223" fill="#EB937F" rx="11" ry="11" style="stroke: #A80036; stroke-width: 1.0;"/><path d="M442.4643,229.5 L434.7445,229.5 L434.7445,217.1069 L442.4643,217.1069 L442.4643,219.2651 L437.1933,219.2651 L437.1933,221.938 L441.9662,221.938 L441.9662,224.0962 L437.1933,224.0962 L437.1933,227.3418 L442.4643,227.3418 Z "/><text fill="#000000" font-family="sans-serif" font-size="12" lengthAdjust="spacingAndGlyphs" textLength="81" x="454.15" y="227.5352">NotifyPlatform</text><line style="stroke: #A80036; stroke-width: 1.5;" x1="419" x2="543" y1="239" y2="239"/><text fill="#000000" font-family="sans-serif" font-size="11" lengthAdjust="spacingAndGlyphs" textLength="57" x="424" y="253.6348">DINGDING,</text><text fill="#000000" font-family="sans-serif" font-size="11" lengthAdjust="spacingAndGlyphs" textLength="114" x="424" y="266.5898">ENTERPRISE_WECHAT</text><line style="stroke: #A80036; stroke-width: 1.5;" x1="419" x2="543" y1="272.9102" y2="272.9102"/><!--MD5=[a8c753a14e5bc8a56d4c824047064b8c]
class NotifyHelper--><rect fill="#FEFECE" filter="url(#f17bdlbwwesh00)" height="60.9551" id="NotifyHelper" style="stroke: #A80036; stroke-width: 1.5;" width="147" x="223.5" y="40.5"/><ellipse cx="257.85" cy="56.5" fill="#B4A7E5" rx="11" ry="11" style="stroke: #A80036; stroke-width: 1.0;"/><path d="M254.2777,52.7651 L254.2777,50.6069 L261.6571,50.6069 L261.6571,52.7651 L259.1918,52.7651 L259.1918,60.8418 L261.6571,60.8418 L261.6571,63 L254.2777,63 L254.2777,60.8418 L256.7431,60.8418 L256.7431,52.7651 Z "/><text fill="#000000" font-family="sans-serif" font-size="12" font-style="italic" lengthAdjust="spacingAndGlyphs" textLength="72" x="276.15" y="61.0352">NotifyHelper</text><line style="stroke: #A80036; stroke-width: 1.5;" x1="224.5" x2="369.5" y1="72.5" y2="72.5"/><line style="stroke: #A80036; stroke-width: 1.5;" x1="224.5" x2="369.5" y1="80.5" y2="80.5"/><text fill="#000000" font-family="sans-serif" font-size="11" lengthAdjust="spacingAndGlyphs" textLength="135" x="229.5" y="95.1348">sendNotify(notify: Notify)</text><!--MD5=[a0abea14e1370dea106983d893b0543e]
class NotifyConsumer--><rect fill="#FEFECE" filter="url(#f17bdlbwwesh00)" height="60.9551" id="NotifyConsumer" style="stroke: #A80036; stroke-width: 1.5;" width="123" x="65.5" y="40.5"/><ellipse cx="80.5" cy="56.5" fill="#ADD1B2" rx="11" ry="11" style="stroke: #A80036; stroke-width: 1.0;"/><path d="M82.9731,62.6431 Q82.3921,62.9419 81.7529,63.0913 Q81.1138,63.2407 80.4082,63.2407 Q77.9014,63.2407 76.5815,61.5889 Q75.2617,59.937 75.2617,56.8159 Q75.2617,53.6865 76.5815,52.0347 Q77.9014,50.3828 80.4082,50.3828 Q81.1138,50.3828 81.7612,50.5322 Q82.4087,50.6816 82.9731,50.9805 L82.9731,53.7031 Q82.3423,53.1221 81.7488,52.8523 Q81.1553,52.5825 80.5244,52.5825 Q79.1797,52.5825 78.4949,53.6492 Q77.8101,54.7158 77.8101,56.8159 Q77.8101,58.9077 78.4949,59.9744 Q79.1797,61.041 80.5244,61.041 Q81.1553,61.041 81.7488,60.7712 Q82.3423,60.5015 82.9731,59.9204 Z "/><text fill="#000000" font-family="sans-serif" font-size="12" lengthAdjust="spacingAndGlyphs" textLength="91" x="94.5" y="61.0352">NotifyConsumer</text><line style="stroke: #A80036; stroke-width: 1.5;" x1="66.5" x2="187.5" y1="72.5" y2="72.5"/><line style="stroke: #A80036; stroke-width: 1.5;" x1="66.5" x2="187.5" y1="80.5" y2="80.5"/><text fill="#000000" font-family="sans-serif" font-size="11" lengthAdjust="spacingAndGlyphs" textLength="48" x="71.5" y="95.1348">listener()</text><!--MD5=[f8ebe89f9ca9154f4bb61b2dfc04404b]
class DingDingHelper--><rect fill="#FEFECE" filter="url(#f17bdlbwwesh00)" height="99.8203" id="DingDingHelper" style="stroke: #A80036; stroke-width: 1.5;" width="170" x="6" y="194"/><ellipse cx="42.15" cy="210" fill="#ADD1B2" rx="11" ry="11" style="stroke: #A80036; stroke-width: 1.0;"/><path d="M44.6231,216.1431 Q44.0421,216.4419 43.4029,216.5913 Q42.7638,216.7407 42.0582,216.7407 Q39.5514,216.7407 38.2315,215.0889 Q36.9117,213.437 36.9117,210.3159 Q36.9117,207.1865 38.2315,205.5347 Q39.5514,203.8828 42.0582,203.8828 Q42.7638,203.8828 43.4112,204.0322 Q44.0587,204.1816 44.6231,204.4805 L44.6231,207.2031 Q43.9923,206.6221 43.3988,206.3523 Q42.8053,206.0825 42.1744,206.0825 Q40.8297,206.0825 40.1449,207.1492 Q39.4601,208.2158 39.4601,210.3159 Q39.4601,212.4077 40.1449,213.4744 Q40.8297,214.541 42.1744,214.541 Q42.8053,214.541 43.3988,214.2712 Q43.9923,214.0015 44.6231,213.4204 Z "/><text fill="#000000" font-family="sans-serif" font-size="12" lengthAdjust="spacingAndGlyphs" textLength="91" x="60.85" y="214.5352">DingDingHelper</text><line style="stroke: #A80036; stroke-width: 1.5;" x1="7" x2="175" y1="226" y2="226"/><line style="stroke: #A80036; stroke-width: 1.5;" x1="7" x2="175" y1="234" y2="234"/><text fill="#000000" font-family="sans-serif" font-size="11" lengthAdjust="spacingAndGlyphs" textLength="135" x="12" y="248.6348">sendNotify(notify: Notify)</text><text fill="#000000" font-family="sans-serif" font-size="11" lengthAdjust="spacingAndGlyphs" textLength="127" x="12" y="261.5898">sendText(notify: Notify)</text><text fill="#000000" font-family="sans-serif" font-size="11" lengthAdjust="spacingAndGlyphs" textLength="125" x="12" y="274.5449">sendLink(notify: Notify)</text><text fill="#000000" font-family="sans-serif" font-size="11" lengthAdjust="spacingAndGlyphs" textLength="158" x="12" y="287.5">sendMarkdown(notify: Notify)</text><!--MD5=[b488e89b6ab55cf41fd70af4df916b1c]
class EnterpriseWechatHelper--><rect fill="#FEFECE" filter="url(#f17bdlbwwesh00)" height="60.9551" id="EnterpriseWechatHelper" style="stroke: #A80036; stroke-width: 1.5;" width="171" x="211.5" y="213.5"/><ellipse cx="226.5" cy="229.5" fill="#ADD1B2" rx="11" ry="11" style="stroke: #A80036; stroke-width: 1.0;"/><path d="M228.9731,235.6431 Q228.3921,235.9419 227.7529,236.0913 Q227.1138,236.2407 226.4082,236.2407 Q223.9014,236.2407 222.5815,234.5889 Q221.2617,232.937 221.2617,229.8159 Q221.2617,226.6865 222.5815,225.0347 Q223.9014,223.3828 226.4082,223.3828 Q227.1138,223.3828 227.7612,223.5322 Q228.4087,223.6816 228.9731,223.9805 L228.9731,226.7031 Q228.3423,226.1221 227.7488,225.8523 Q227.1553,225.5825 226.5244,225.5825 Q225.1797,225.5825 224.4949,226.6492 Q223.8101,227.7158 223.8101,229.8159 Q223.8101,231.9077 224.4949,232.9744 Q225.1797,234.041 226.5244,234.041 Q227.1553,234.041 227.7488,233.7712 Q228.3423,233.5015 228.9731,232.9204 Z "/><text fill="#000000" font-family="sans-serif" font-size="12" lengthAdjust="spacingAndGlyphs" textLength="139" x="240.5" y="234.0352">EnterpriseWechatHelper</text><line style="stroke: #A80036; stroke-width: 1.5;" x1="212.5" x2="381.5" y1="245.5" y2="245.5"/><line style="stroke: #A80036; stroke-width: 1.5;" x1="212.5" x2="381.5" y1="253.5" y2="253.5"/><text fill="#000000" font-family="sans-serif" font-size="11" lengthAdjust="spacingAndGlyphs" textLength="135" x="217.5" y="268.1348">sendNotify(notify: Notify)</text><!--MD5=[72e85e3db09b536f177bc69b113e0dd6]
link Notify to NotifyPlatform--><path d="M479.73,134.22 C479.99,156.76 480.28,181.63 480.52,201.9 " fill="none" id="Notify-&gt;NotifyPlatform" style="stroke: #A80036; stroke-width: 1.0; stroke-dasharray: 7.0,7.0;"/><polygon fill="#A80036" points="480.58,206.94,484.451,197.8838,480.5086,201.9405,476.4518,197.9981,480.58,206.94" style="stroke: #A80036; stroke-width: 1.0;"/><!--MD5=[24b709f33a2366f546e8cf7275d22076]
link NotifyHelper to Notify--><path d="M370.58,71 C381.48,71 392.37,71 403.27,71 " fill="none" id="NotifyHelper-&gt;Notify" style="stroke: #A80036; stroke-width: 1.0;"/><polygon fill="#A80036" points="408.27,71,399.27,67,403.27,71,399.27,75,408.27,71" style="stroke: #A80036; stroke-width: 1.0;"/><!--MD5=[a79d851f37fe4632be597d680fce3a91]
link NotifyConsumer to NotifyHelper--><path d="M188.76,71 C198.6,71 208.44,71 218.28,71 " fill="none" id="NotifyConsumer-&gt;NotifyHelper" style="stroke: #A80036; stroke-width: 1.0;"/><polygon fill="#A80036" points="223.43,71,214.43,67,218.43,71,214.43,75,223.43,71" style="stroke: #A80036; stroke-width: 1.0;"/><!--MD5=[bf8232c11aa68e984b3848f7d90976b8]
reverse link NotifyHelper to DingDingHelper--><path d="M245.46,114.78 C216.54,138.79 180.33,168.84 150.25,193.82 " fill="none" id="NotifyHelper&lt;-DingDingHelper" style="stroke: #A80036; stroke-width: 1.0; stroke-dasharray: 7.0,7.0;"/><polygon fill="none" points="241.26,109.17,261.12,101.79,250.2,119.95,241.26,109.17" style="stroke: #A80036; stroke-width: 1.0;"/><!--MD5=[4fe52428dd6e91550bbb8c24e28d1840]
reverse link NotifyHelper to EnterpriseWechatHelper--><path d="M297,121.88 C297,151.51 297,188.11 297,213.27 " fill="none" id="NotifyHelper&lt;-EnterpriseWechatHelper" style="stroke: #A80036; stroke-width: 1.0; stroke-dasharray: 7.0,7.0;"/><polygon fill="none" points="290,121.79,297,101.79,304,121.79,290,121.79" style="stroke: #A80036; stroke-width: 1.0;"/><!--MD5=[baac9419d0e1ef90dfe2662c17de3c9b]
@startuml DewuNotify

Notify ..> NotifyPlatform
NotifyHelper -right->  Notify
NotifyConsumer -right-> NotifyHelper

interface NotifyHelper{
  sendNotify(notify: Notify)
}

class DingDingHelper implements NotifyHelper{
  sendNotify(notify: Notify)
  sendText(notify: Notify)
  sendLink(notify: Notify)
  sendMarkdown(notify: Notify)
}

class EnterpriseWechatHelper implements NotifyHelper{
  sendNotify(notify: Notify)
}

class NotifyConsumer{
  listener()
}

together {
  class Notify{
    platform: NotifyPlatform
    notifyType: String
    title: String
    text: String
    picUrl: String
    link: String
  }

  enum NotifyPlatform{
    DINGDING,
    ENTERPRISE_WECHAT
  }
}

@enduml

PlantUML version 1.2020.10(Sun May 17 17:35:57 CST 2020)
(GPL source distribution)
Java Runtime: Java(TM) SE Runtime Environment
JVM: Java HotSpot(TM) 64-Bit Server VM
Java Version: 11.0.5+10-LTS
Operating System: Mac OS X
Default Encoding: UTF-8
Language: zh
Country: CN
--></g></svg>