<?xml version="1.0" encoding="UTF-8" standalone="no"?><svg xmlns="http://www.w3.org/2000/svg" xmlns:xlink="http://www.w3.org/1999/xlink" contentScriptType="application/ecmascript" contentStyleType="text/css" height="278px" preserveAspectRatio="none" style="width:340px;height:278px;" version="1.1" viewBox="0 0 340 278" width="340px" zoomAndPan="magnify"><defs><filter height="300%" id="f1qf0ed0itahz0" width="300%" x="-1" y="-1"><feGaussianBlur result="blurOut" stdDeviation="2.0"/><feColorMatrix in="blurOut" result="blurOut2" type="matrix" values="0 0 0 0 0 0 0 0 0 0 0 0 0 0 0 0 0 0 .4 0"/><feOffset dx="4.0" dy="4.0" in="blurOut2" result="blurOut3"/><feBlend in="SourceGraphic" in2="blurOut3" mode="normal"/></filter></defs><g><!--MD5=[cf2b466143bd797820c9416be252779d]
entity ##7--><!--MD5=[045fda80d966d866a4266074cfd1e9c9]
class Notify--><rect fill="#FEFECE" filter="url(#f1qf0ed0itahz0)" height="125.7305" id="Notify" style="stroke: #A80036; stroke-width: 1.5;" width="141" x="188" y="8"/><ellipse cx="237.75" cy="24" fill="#ADD1B2" rx="11" ry="11" style="stroke: #A80036; stroke-width: 1.0;"/><path d="M240.2231,30.1431 Q239.6421,30.4419 239.0029,30.5913 Q238.3638,30.7407 237.6582,30.7407 Q235.1514,30.7407 233.8315,29.0889 Q232.5117,27.437 232.5117,24.3159 Q232.5117,21.1865 233.8315,19.5347 Q235.1514,17.8828 237.6582,17.8828 Q238.3638,17.8828 239.0112,18.0322 Q239.6587,18.1816 240.2231,18.4805 L240.2231,21.2031 Q239.5923,20.6221 238.9988,20.3523 Q238.4053,20.0825 237.7744,20.0825 Q236.4297,20.0825 235.7449,21.1492 Q235.0601,22.2158 235.0601,24.3159 Q235.0601,26.4077 235.7449,27.4744 Q236.4297,28.541 237.7744,28.541 Q238.4053,28.541 238.9988,28.2712 Q239.5923,28.0015 240.2231,27.4204 Z "/><text fill="#000000" font-family="sans-serif" font-size="12" lengthAdjust="spacingAndGlyphs" textLength="33" x="258.25" y="28.5352">Notify</text><line style="stroke: #A80036; stroke-width: 1.5;" x1="189" x2="328" y1="40" y2="40"/><text fill="#000000" font-family="sans-serif" font-size="11" lengthAdjust="spacingAndGlyphs" textLength="129" x="194" y="54.6348">platform: NotifyPlatform</text><text fill="#000000" font-family="sans-serif" font-size="11" lengthAdjust="spacingAndGlyphs" textLength="95" x="194" y="67.5898">notifyType: String</text><text fill="#000000" font-family="sans-serif" font-size="11" lengthAdjust="spacingAndGlyphs" textLength="58" x="194" y="80.5449">title: String</text><text fill="#000000" font-family="sans-serif" font-size="11" lengthAdjust="spacingAndGlyphs" textLength="59" x="194" y="93.5">text: String</text><text fill="#000000" font-family="sans-serif" font-size="11" lengthAdjust="spacingAndGlyphs" textLength="70" x="194" y="106.4551">picUrl: String</text><text fill="#000000" font-family="sans-serif" font-size="11" lengthAdjust="spacingAndGlyphs" textLength="57" x="194" y="119.4102">link: String</text><line style="stroke: #A80036; stroke-width: 1.5;" x1="189" x2="328" y1="125.7305" y2="125.7305"/><!--MD5=[d751d60023ab84c461ea23da7e8d2ad2]
class NotifyPlatform--><rect fill="#FEFECE" filter="url(#f1qf0ed0itahz0)" height="73.9102" id="NotifyPlatform" style="stroke: #A80036; stroke-width: 1.5;" width="126" x="195.5" y="194"/><ellipse cx="216.35" cy="210" fill="#EB937F" rx="11" ry="11" style="stroke: #A80036; stroke-width: 1.0;"/><path d="M219.9643,216.5 L212.2445,216.5 L212.2445,204.1069 L219.9643,204.1069 L219.9643,206.2651 L214.6933,206.2651 L214.6933,208.938 L219.4662,208.938 L219.4662,211.0962 L214.6933,211.0962 L214.6933,214.3418 L219.9643,214.3418 Z "/><text fill="#000000" font-family="sans-serif" font-size="12" lengthAdjust="spacingAndGlyphs" textLength="81" x="231.65" y="214.5352">NotifyPlatform</text><line style="stroke: #A80036; stroke-width: 1.5;" x1="196.5" x2="320.5" y1="226" y2="226"/><text fill="#000000" font-family="sans-serif" font-size="11" lengthAdjust="spacingAndGlyphs" textLength="57" x="201.5" y="240.6348">DINGDING,</text><text fill="#000000" font-family="sans-serif" font-size="11" lengthAdjust="spacingAndGlyphs" textLength="114" x="201.5" y="253.5898">ENTERPRISE_WECHAT</text><line style="stroke: #A80036; stroke-width: 1.5;" x1="196.5" x2="320.5" y1="259.9102" y2="259.9102"/><!--MD5=[a8c753a14e5bc8a56d4c824047064b8c]
class NotifyHelper--><rect fill="#FEFECE" filter="url(#f1qf0ed0itahz0)" height="60.9551" id="NotifyHelper" style="stroke: #A80036; stroke-width: 1.5;" width="147" x="6" y="40.5"/><ellipse cx="40.35" cy="56.5" fill="#B4A7E5" rx="11" ry="11" style="stroke: #A80036; stroke-width: 1.0;"/><path d="M36.7777,52.7651 L36.7777,50.6069 L44.1571,50.6069 L44.1571,52.7651 L41.6918,52.7651 L41.6918,60.8418 L44.1571,60.8418 L44.1571,63 L36.7777,63 L36.7777,60.8418 L39.2431,60.8418 L39.2431,52.7651 Z "/><text fill="#000000" font-family="sans-serif" font-size="12" font-style="italic" lengthAdjust="spacingAndGlyphs" textLength="72" x="58.65" y="61.0352">NotifyHelper</text><line style="stroke: #A80036; stroke-width: 1.5;" x1="7" x2="152" y1="72.5" y2="72.5"/><line style="stroke: #A80036; stroke-width: 1.5;" x1="7" x2="152" y1="80.5" y2="80.5"/><text fill="#000000" font-family="sans-serif" font-size="11" lengthAdjust="spacingAndGlyphs" textLength="135" x="12" y="95.1348">sendNotify(notify: Notify)</text><!--MD5=[72e85e3db09b536f177bc69b113e0dd6]
link Notify to NotifyPlatform--><path d="M258.5,134.45 C258.5,152.74 258.5,172.27 258.5,188.88 " fill="none" id="Notify-&gt;NotifyPlatform" style="stroke: #A80036; stroke-width: 1.0; stroke-dasharray: 7.0,7.0;"/><polygon fill="#A80036" points="258.5,193.93,262.5,184.93,258.5,188.93,254.5,184.93,258.5,193.93" style="stroke: #A80036; stroke-width: 1.0;"/><!--MD5=[24b709f33a2366f546e8cf7275d22076]
link NotifyHelper to Notify--><path d="M153.27,71 C163.07,71 172.87,71 182.67,71 " fill="none" id="NotifyHelper-&gt;Notify" style="stroke: #A80036; stroke-width: 1.0;"/><polygon fill="#A80036" points="187.8,71,178.8,67,182.8,71,178.8,75,187.8,71" style="stroke: #A80036; stroke-width: 1.0;"/><!--MD5=[72b2626465709d934564b1107883dfa2]
@startuml DewuNotify

Notify ..> NotifyPlatform
NotifyHelper -right->  Notify

interface NotifyHelper{
  sendNotify(notify: Notify)
}

together {
  class Notify{
    platform: NotifyPlatform
    notifyType: String
    title: String
    text: String
    picUrl: String
    link: String
  }

  enum NotifyPlatform{
    DINGDING,
    ENTERPRISE_WECHAT
  }
}

@enduml

PlantUML version 1.2020.10(Sun May 17 17:35:57 CST 2020)
(GPL source distribution)
Java Runtime: Java(TM) SE Runtime Environment
JVM: Java HotSpot(TM) 64-Bit Server VM
Java Version: 11.0.5+10-LTS
Operating System: Mac OS X
Default Encoding: UTF-8
Language: zh
Country: CN
--></g></svg>