<?xml version="1.0" encoding="UTF-8" standalone="no"?><svg xmlns="http://www.w3.org/2000/svg" xmlns:xlink="http://www.w3.org/1999/xlink" contentScriptType="application/ecmascript" contentStyleType="text/css" height="278px" preserveAspectRatio="none" style="width:203px;height:278px;" version="1.1" viewBox="0 0 203 278" width="203px" zoomAndPan="magnify"><defs><filter height="300%" id="f1l5och4ho21y4" width="300%" x="-1" y="-1"><feGaussianBlur result="blurOut" stdDeviation="2.0"/><feColorMatrix in="blurOut" result="blurOut2" type="matrix" values="0 0 0 0 0 0 0 0 0 0 0 0 0 0 0 0 0 0 .4 0"/><feOffset dx="4.0" dy="4.0" in="blurOut2" result="blurOut3"/><feBlend in="SourceGraphic" in2="blurOut3" mode="normal"/></filter></defs><g><!--MD5=[7639129a7208b5720b5c8dbdaf72c8f5]
entity ##5--><!--MD5=[045fda80d966d866a4266074cfd1e9c9]
class Notify--><rect fill="#FEFECE" filter="url(#f1l5och4ho21y4)" height="125.7305" id="Notify" style="stroke: #A80036; stroke-width: 1.5;" width="141" x="51.5" y="8"/><ellipse cx="101.25" cy="24" fill="#ADD1B2" rx="11" ry="11" style="stroke: #A80036; stroke-width: 1.0;"/><path d="M103.7231,30.1431 Q103.1421,30.4419 102.5029,30.5913 Q101.8638,30.7407 101.1582,30.7407 Q98.6514,30.7407 97.3315,29.0889 Q96.0117,27.437 96.0117,24.3159 Q96.0117,21.1865 97.3315,19.5347 Q98.6514,17.8828 101.1582,17.8828 Q101.8638,17.8828 102.5112,18.0322 Q103.1587,18.1816 103.7231,18.4805 L103.7231,21.2031 Q103.0923,20.6221 102.4988,20.3523 Q101.9053,20.0825 101.2744,20.0825 Q99.9297,20.0825 99.2449,21.1492 Q98.5601,22.2158 98.5601,24.3159 Q98.5601,26.4077 99.2449,27.4744 Q99.9297,28.541 101.2744,28.541 Q101.9053,28.541 102.4988,28.2712 Q103.0923,28.0015 103.7231,27.4204 Z "/><text fill="#000000" font-family="sans-serif" font-size="12" lengthAdjust="spacingAndGlyphs" textLength="33" x="121.75" y="28.5352">Notify</text><line style="stroke: #A80036; stroke-width: 1.5;" x1="52.5" x2="191.5" y1="40" y2="40"/><text fill="#000000" font-family="sans-serif" font-size="11" lengthAdjust="spacingAndGlyphs" textLength="129" x="57.5" y="54.6348">platform: NotifyPlatform</text><text fill="#000000" font-family="sans-serif" font-size="11" lengthAdjust="spacingAndGlyphs" textLength="95" x="57.5" y="67.5898">notifyType: String</text><text fill="#000000" font-family="sans-serif" font-size="11" lengthAdjust="spacingAndGlyphs" textLength="58" x="57.5" y="80.5449">title: String</text><text fill="#000000" font-family="sans-serif" font-size="11" lengthAdjust="spacingAndGlyphs" textLength="59" x="57.5" y="93.5">text: String</text><text fill="#000000" font-family="sans-serif" font-size="11" lengthAdjust="spacingAndGlyphs" textLength="70" x="57.5" y="106.4551">picUrl: String</text><text fill="#000000" font-family="sans-serif" font-size="11" lengthAdjust="spacingAndGlyphs" textLength="57" x="57.5" y="119.4102">link: String</text><line style="stroke: #A80036; stroke-width: 1.5;" x1="52.5" x2="191.5" y1="125.7305" y2="125.7305"/><!--MD5=[d751d60023ab84c461ea23da7e8d2ad2]
class NotifyPlatform--><rect fill="#FEFECE" filter="url(#f1l5och4ho21y4)" height="73.9102" id="NotifyPlatform" style="stroke: #A80036; stroke-width: 1.5;" width="126" x="59" y="194"/><ellipse cx="79.85" cy="210" fill="#EB937F" rx="11" ry="11" style="stroke: #A80036; stroke-width: 1.0;"/><path d="M83.4643,216.5 L75.7445,216.5 L75.7445,204.1069 L83.4643,204.1069 L83.4643,206.2651 L78.1933,206.2651 L78.1933,208.938 L82.9662,208.938 L82.9662,211.0962 L78.1933,211.0962 L78.1933,214.3418 L83.4643,214.3418 Z "/><text fill="#000000" font-family="sans-serif" font-size="12" lengthAdjust="spacingAndGlyphs" textLength="81" x="95.15" y="214.5352">NotifyPlatform</text><line style="stroke: #A80036; stroke-width: 1.5;" x1="60" x2="184" y1="226" y2="226"/><text fill="#000000" font-family="sans-serif" font-size="11" lengthAdjust="spacingAndGlyphs" textLength="57" x="65" y="240.6348">DINGDING,</text><text fill="#000000" font-family="sans-serif" font-size="11" lengthAdjust="spacingAndGlyphs" textLength="114" x="65" y="253.5898">ENTERPRISE_WECHAT</text><line style="stroke: #A80036; stroke-width: 1.5;" x1="60" x2="184" y1="259.9102" y2="259.9102"/><!--MD5=[72e85e3db09b536f177bc69b113e0dd6]
link Notify to NotifyPlatform--><path d="M122,134.45 C122,152.74 122,172.27 122,188.88 " fill="none" id="Notify-&gt;NotifyPlatform" style="stroke: #A80036; stroke-width: 1.0; stroke-dasharray: 7.0,7.0;"/><polygon fill="#A80036" points="122,193.93,126,184.93,122,188.93,118,184.93,122,193.93" style="stroke: #A80036; stroke-width: 1.0;"/><!--MD5=[c94c2928f83a4e0532a56293bdb932f3]
@startuml DewuNotify

Notify ..> NotifyPlatform
together {
  class Notify{
    platform: NotifyPlatform
    notifyType: String
    title: String
    text: String
    picUrl: String
    link: String
  }

  enum NotifyPlatform{
    DINGDING,
    ENTERPRISE_WECHAT
  }
}

@enduml

PlantUML version 1.2020.10(Sun May 17 17:35:57 CST 2020)
(GPL source distribution)
Java Runtime: Java(TM) SE Runtime Environment
JVM: Java HotSpot(TM) 64-Bit Server VM
Java Version: 11.0.5+10-LTS
Operating System: Mac OS X
Default Encoding: UTF-8
Language: zh
Country: CN
--></g></svg>